#!OML:ASF F:\VICON\USERDATA\INSTALL\rory3\rory3.ASF
:FULLY-SPECIFIED
:DEGREES
273
root 11.0466 17.8256 11.2206 -17.555 -85.2703 19.2491
lowerback 11.7001 1.50055 1.22476
upperback 0.798283 2.10286 -0.221942
thorax -5.6714 0.983867 -1.26496
lowerneck -18.6995 -7.63541 -13.2949
upperneck 26.4007 -10.1635 10.1376
head 13.2271 -4.68744 4.38443
rclavicle -2.6339e-014 4.77083e-015
rhumerus -28.5192 -2.72133 -86.7296
rradius 44.523
rwrist -0.510065
rhand -17.317 9.96983
rfingers 7.12502
rthumb 8.92946 -19.8212
lclavicle -2.6339e-014 4.77083e-015
lhumerus -37.5072 5.38693 78.3245
lradius 30.2121
lwrist -8.18023
lhand -18.7869 28.2486
lfingers 7.12502
lthumb 7.51081 58.0952
rfemur 2.61588 4.73981 30.5663
rtibia 20.2117
rfoot -15.2872 7.31823
rtoes 25.9947
lfemur -23.5508 -4.47163 -13.6206
ltibia 45.3917
lfoot -9.02904 -1.29679
ltoes -19.0263
274
root 10.9822 17.8269 11.2481 -20.9918 -85.905 22.7495
lowerback 11.8961 1.52465 1.0779
upperback 0.791314 2.12057 -0.154772
thorax -5.7957 0.995015 -1.12124
lowerneck -18.7688 -7.63117 -13.3978
upperneck 26.3065 -10.1061 10.1568
head 13.2022 -4.66621 4.41655
rclavicle 3.89618e-014 0
rhumerus -28.6916 -2.27454 -86.648
rradius 44.5024
rwrist -1.14737
rhand -17.3386 9.74807
rfingers 7.12502
rthumb 8.9086 -20.0439
lclavicle 3.89618e-014 0
lhumerus -37.2246 5.95827 77.9635
lradius 30.3354
lwrist -8.63041
lhand -18.7829 28.4259
lfingers 7.12502
lthumb 7.5147 58.2724
rfemur 3.17076 4.67405 30.496
rtibia 19.5622
rfoot -15.0252 7.15645
rtoes 26.0032
lfemur -23.9727 -4.33026 -13.7208
ltibia 44.0349
lfoot -8.96859 -1.2276
ltoes -20.4245
275
root 10.9096 17.8285 11.2839 -24.0581 -86.6357 25.8652
lowerback 11.9922 1.52551 1.17279
upperback 0.828293 2.13867 -0.0686213
thorax -5.80978 1.00167 -1.08957
lowerneck -18.8553 -7.60805 -13.5265
upperneck 26.1359 -9.99591 10.1713
head 13.143 -4.62259 4.45899
rclavicle -3.72721e-015 -1.19271e-015
rhumerus -28.7915 -2.06251 -86.509
rradius 44.4434
rwrist -1.46416
rhand -17.0932 9.63369
rfingers 7.12502
rthumb 9.14545 -20.148
lclavicle -3.72721e-015 -1.19271e-015
lhumerus -36.944 6.5514 77.617
lradius 30.4774
lwrist -8.90531
lhand -18.7578 28.2308
lfingers 7.12502
lthumb 7.5389 58.0765
rfemur 3.70164 4.42281 30.4632
rtibia 18.9796
rfoot -14.7203 7.39607
rtoes 26.0666
lfemur -24.2987 -4.18822 -13.7376
ltibia 42.5635
lfoot -8.79462 -1.04379
ltoes -20.5142
276
root 10.8283 17.8313 11.328 -27.5415 -87.3426 29.3786
lowerback 11.9954 1.52774 1.50151
upperback 0.893622 2.18215 -0.0838652
thorax -5.72851 1.01494 -1.2964
lowerneck -18.8629 -7.58088 -13.4119
upperneck 25.8693 -9.94094 10.1238
head 13.0169 -4.58822 4.42403
rclavicle 1.98785e-016 1.19271e-015
rhumerus -28.7746 -2.55575 -86.303
rradius 44.158
rwrist -0.975613
rhand -16.6387 9.6839
rfingers 7.12502
rthumb 9.58396 -20.0781
lclavicle 1.98785e-016 1.19271e-015
lhumerus -36.5983 6.5226 77.4032
lradius 30.6693
lwrist -8.50745
lhand -18.7876 27.8929
lfingers 7.12502
lthumb 7.51015 57.7396
rfemur 4.24234 4.04777 30.4018
rtibia 18.4432
rfoot -14.5394 7.76346
rtoes 26.0543
lfemur -24.5247 -4.11456 -13.7506
ltibia 40.9775
lfoot -8.47929 -0.840076
ltoes -19.9351
277
root 10.7461 17.8325 11.3707 -34.2432 -87.9721 36.1544
lowerback 12.0025 1.55316 1.75395
upperback 0.911105 2.24729 -0.107411
thorax -5.70126 1.04046 -1.47367
lowerneck -18.9083 -7.55041 -13.2555
upperneck 25.7671 -9.90027 10.0366
head 12.963 -4.56254 4.36714
rclavicle -2.82771e-014 3.18055e-015
rhumerus -28.8307 -2.79672 -86.1259
rradius 43.8905
rwrist -0.773595
rhand -16.5721 9.56556
rfingers 7.12502
rthumb 9.64818 -20.1935
lclavicle -2.82771e-014 3.18055e-015
lhumerus -36.3026 6.61017 77.1789
lradius 30.8915
lwrist -8.34612
lhand -18.8651 28.0159
lfingers 7.12502
lthumb 7.43534 57.8653
rfemur 4.7501 4.06497 30.3456
rtibia 17.9181
rfoot -14.4216 7.79182
rtoes 26.0595
lfemur -24.7682 -3.91899 -13.8635
ltibia 39.2712
lfoot -8.13492 -0.524537
ltoes -20.7666
